<?xml version="1.0" encoding="UTF-8"?>
<svg version="1.1" xmlns="http://www.w3.org/2000/svg" width="844" height="296">
<path d="M0 0 C1.05380859 0.01522705 1.05380859 0.01522705 2.12890625 0.03076172 C11.30621793 0.30429989 18.55837563 2.8217769 25.125 9.375 C48.4424224 38.35522498 38.77363212 96.60465916 36.125 131.375 C36.78918945 131.26430176 37.45337891 131.15360352 38.13769531 131.03955078 C39.06678711 130.88470215 39.99587891 130.72985352 40.953125 130.5703125 C42.49613281 130.31314453 42.49613281 130.31314453 44.0703125 130.05078125 C45.70613281 129.77814453 45.70613281 129.77814453 47.375 129.5 C48.41914063 129.32597656 49.46328125 129.15195313 50.5390625 128.97265625 C54.89257813 128.24707031 59.24609375 127.52148438 63.59960938 126.79589844 C64.69595703 126.61317383 65.79230469 126.43044922 66.921875 126.2421875 C67.92057617 126.0757373 68.91927734 125.90928711 69.94824219 125.73779297 C70.66657227 125.61807129 71.38490234 125.49834961 72.125 125.375 C72.04121094 124.48167969 71.95742188 123.58835937 71.87109375 122.66796875 C70.9874443 111.59270745 71.17156751 100.59225239 71.5 89.5 C71.52142059 88.74600922 71.54284119 87.99201843 71.56491089 87.21517944 C71.79904211 79.1989311 72.17868418 71.22860941 72.91064453 63.23974609 C73.1395065 60.18112834 73.22014771 57.14479492 73.265625 54.078125 C73.74044108 22.0794371 73.74044108 22.0794371 84.2578125 11.85546875 C90.94164928 6.55594126 97.60780053 5.12190493 106.125 5.375 C115.10819703 6.60468835 120.27785135 11.30801429 126.3125 17.6875 C134.91433579 30.44194617 137.2710569 44.66588623 137.29296875 59.78515625 C137.29720352 60.68763596 137.30143829 61.59011566 137.30580139 62.51994324 C137.31576124 65.49250874 137.31569238 68.4649205 137.3125 71.4375 C137.31189575 72.47684692 137.3112915 73.51619385 137.31066895 74.58703613 C137.27620651 96.69595066 136.49460026 118.73188143 135.31506348 140.8067627 C135.14487649 144.00184023 134.97795772 147.19707399 134.81197357 150.39237213 C134.39212183 158.46084641 133.95210026 166.5280464 133.49694824 174.59460449 C133.33443467 177.47662684 133.17640961 180.35883435 133.02258301 183.24133301 C129.3484045 251.62366994 129.3484045 251.62366994 114.625 268.1875 C107.36687492 274.53835944 103.28674361 276.91128161 93.51953125 276.7578125 C88.3101542 276.17033385 84.46160421 274.22927404 80.125 271.375 C79.53976562 270.99085938 78.95453125 270.60671875 78.3515625 270.2109375 C71.11347663 264.80992926 67.31033625 255.88846577 65.125 247.375 C64.61477068 242.26423823 64.64782979 237.19107975 64.75 232.0625 C64.76374316 230.65169956 64.77675654 229.24089183 64.7890625 227.83007812 C64.93315691 216.26824042 65.84776173 204.87014444 67.125 193.375 C56.565 194.365 46.005 195.355 35.125 196.375 C34.2637848 205.28747291 34.2637848 205.28747291 33.4206543 214.20166016 C31.5514026 232.88363871 28.04565906 252.46824283 13.6875 265.8125 C5.95856789 271.82200008 -2.26258635 272.4138843 -11.875 271.375 C-15.10364437 270.37120882 -17.96906766 269.09703398 -20.875 267.375 C-20.875 266.715 -20.875 266.055 -20.875 265.375 C-21.535 265.375 -22.195 265.375 -22.875 265.375 C-27.90758693 258.99634766 -31.12302113 252.27238166 -32.875 244.375 C-33.04628418 243.61106934 -33.21756836 242.84713867 -33.39404297 242.06005859 C-36.79770327 223.05830426 -33.46079645 201.38471065 -32.03027344 182.28125 C-29.82716655 152.65351377 -29.62479616 123.0128951 -29.34893799 93.31970215 C-28.98381545 54.21839722 -28.98381545 54.21839722 -28.42578125 40.6953125 C-28.39105713 39.81582947 -28.35633301 38.93634644 -28.32055664 38.0302124 C-28.01020281 31.56640922 -27.07388259 25.49064221 -24.875 19.375 C-24.58625 18.56160156 -24.2975 17.74820312 -24 16.91015625 C-21.38156041 10.35314711 -18.02601256 5.01767159 -11.66796875 1.703125 C-7.82448725 0.16249536 -4.10810742 -0.08608029 0 0 Z " fill="#3EB2DD" transform="translate(330.875,12.625)"/>
<path d="M0 0 C18.48869339 13.86652004 28.66197412 34.12210999 35.31054688 55.79541016 C35.68953125 57.02775391 36.06851563 58.26009766 36.45898438 59.52978516 C50.2233664 107.75686804 49.92633614 169.31598737 27.31054688 214.79541016 C26.74722656 215.96845703 26.18390625 217.14150391 25.60351562 218.35009766 C16.18116764 237.4012839 0.89170271 253.46309236 -19.22851562 261.14697266 C-39.38153236 267.58667226 -61.04522173 266.70775427 -79.94042969 257.1237793 C-86.01751579 253.84644077 -90.86160375 249.72233853 -95.68945312 244.79541016 C-96.29789063 244.24498047 -96.90632812 243.69455078 -97.53320312 243.12744141 C-115.57940223 226.51673541 -123.23216217 200.57747671 -127.87695312 177.29541016 C-128.04437012 176.46509277 -128.21178711 175.63477539 -128.38427734 174.77929688 C-130.83747794 161.73859897 -130.8518824 148.58259314 -130.81982422 135.36352539 C-130.814454 132.73334003 -130.81980873 130.10332482 -130.82617188 127.47314453 C-130.8337188 113.9741542 -130.22365969 100.93383356 -127.50195312 87.67041016 C-127.28128174 86.59073975 -127.06061035 85.51106934 -126.83325195 84.39868164 C-119.96679513 51.93361297 -105.53805749 17.64286533 -76.68945312 -1.14208984 C-53.75528331 -15.49540546 -22.20195433 -15.83012177 0 0 Z M-55.31445312 75.73291016 C-71.02600194 100.28220519 -68.73917257 138.16195952 -62.87695312 165.42041016 C-60.30222265 176.43600963 -56.91907822 188.63530248 -46.75195312 195.01025391 C-43.00301705 196.43740571 -39.49778784 195.80913954 -35.68945312 194.79541016 C-26.29633366 188.46051564 -23.17945508 174.45023192 -21.08007812 163.89746094 C-15.89715232 136.00684143 -14.49448861 99.96207014 -29.68945312 74.79541016 C-33.49140297 70.4370774 -35.62553921 68.96740298 -41.43945312 68.48291016 C-47.65574318 68.59697052 -51.2555053 71.19075426 -55.31445312 75.73291016 Z " fill="#3EB2DE" transform="translate(616.689453125,26.20458984375)"/>
<path d="M0 0 C1.40887855 1.15087925 2.80569796 2.31674816 4.1875 3.5 C4.77917969 3.99628906 5.37085938 4.49257813 5.98046875 5.00390625 C21.54929919 19.21892534 27.99001304 40.87878185 29.13037109 61.26855469 C30.0660035 88.86120484 17.71573561 114.60268294 -0.8125 134.5 C-2.45896685 136.18662458 -4.12433067 137.85511706 -5.8125 139.5 C-6.33070313 140.04011719 -6.84890625 140.58023438 -7.3828125 141.13671875 C-8.8220441 142.62809642 -10.31404271 144.06814082 -11.8125 145.5 C-12.4725 145.5 -13.1325 145.5 -13.8125 145.5 C-13.8125 146.16 -13.8125 146.82 -13.8125 147.5 C-17.63765824 150.41816196 -21.7567127 152.91552456 -25.8125 155.5 C-26.62460937 156.04398438 -27.43671875 156.58796875 -28.2734375 157.1484375 C-40.02705456 164.73012222 -55.76092707 170.5 -69.8125 170.5 C-69.64234375 171.27730469 -69.4721875 172.05460938 -69.296875 172.85546875 C-68.67102837 177.56445991 -68.83945166 182.07623933 -69.0625 186.8125 C-69.13247192 188.3130896 -69.13247192 188.3130896 -69.20385742 189.84399414 C-71.98416064 242.18269488 -71.98416064 242.18269488 -87.75 259.1875 C-93.36808816 264.23297533 -99.0622556 266.0741472 -106.578125 265.7890625 C-114.15500212 264.80883714 -119.34539807 261.33716722 -124.3125 255.625 C-138.63104178 234.6666297 -136.12635483 203.21235495 -136.08115101 179.25856495 C-136.07596907 175.63166358 -136.08081734 172.00477059 -136.08392334 168.37786865 C-136.08753769 162.27272704 -136.08284092 156.16763416 -136.07324219 150.0625 C-136.0636459 143.8899416 -136.06354102 137.71748007 -136.07324219 131.54492188 C-136.16330011 72.65169192 -136.16330011 72.65169192 -134.921875 47.484375 C-134.88304451 46.67593391 -134.84421402 45.86749283 -134.80420685 45.03455353 C-133.55297088 20.031594 -133.55297088 20.031594 -129.75 14.5 C-125.89108037 11.87265047 -121.94465078 9.66642762 -117.8125 7.5 C-116.78640625 6.91347656 -115.7603125 6.32695312 -114.703125 5.72265625 C-79.7703886 -14.07139679 -34.62482641 -25.93947433 0 0 Z M-71.8125 63.5 C-71.83984471 65.83341499 -71.85950237 68.16649949 -71.875 70.5 C-71.88660156 71.799375 -71.89820313 73.09875 -71.91015625 74.4375 C-71.88191016 77.76337812 -71.52306102 80.98040978 -71.06860352 84.27734375 C-70.54372275 88.83264828 -70.43329727 93.42057318 -70.25 98 C-70.20681641 99.01320312 -70.16363281 100.02640625 -70.11914062 101.0703125 C-70.01400808 103.5467679 -69.91186163 106.02330749 -69.8125 108.5 C-57.40908586 104.80497094 -43.83256476 95.38004618 -36.71484375 84.4375 C-33.72750024 78.0231174 -33.1650277 71.23564637 -35.0390625 64.4453125 C-36.45517908 60.88356474 -38.36993995 58.22128003 -41.8125 56.5 C-53.55085233 55.68938337 -61.90386436 57.38616099 -71.8125 63.5 Z " fill="#3EB2DD" transform="translate(814.8125,25.5)"/>
<path d="M0 0 C0.64195313 0.34289062 1.28390625 0.68578125 1.9453125 1.0390625 C12.03857362 7.18890997 19.72523971 20.61305756 23.10546875 31.58984375 C27.72228892 51.00631365 22.92251789 70.24610544 13 87 C10.58295076 90.60584285 7.94069794 93.81116418 5 97 C4.18917969 97.90234375 3.37835938 98.8046875 2.54296875 99.734375 C-13.49248836 116.73242909 -35.71858781 126.82170863 -59 128 C-56.22698862 134.58110996 -53.75472652 139.98332602 -47 143 C-37.58290459 146.09218058 -30.23870509 145.28520894 -21.375 141.0625 C-15.39871743 138.00820965 -9.81996439 134.39897507 -4.32568359 130.55297852 C3.26499172 125.27328905 10.74960963 120.82459542 20.2890625 122.37109375 C26.17949245 124.00057695 31.16471198 127.20588997 35 132 C37.72407445 140.80882772 35.85966077 150.414186 31.75 158.4375 C29.13431637 163.2123311 26.48850549 167.81379341 23 172 C22.34 172 21.68 172 21 172 C20.773125 172.556875 20.54625 173.11375 20.3125 173.6875 C18.62449964 176.66159588 16.53323483 178.72008865 14 181 C13.34 181 12.68 181 12 181 C12 181.66 12 182.32 12 183 C-5.4792954 197.20745427 -25.3071422 206.06886649 -48 205 C-66.94198217 202.81225644 -82.11148706 192.24917232 -94.44140625 178.22265625 C-104.85742009 165.01696218 -111.45922828 150.08568383 -116 134 C-116.3403125 132.86175781 -116.680625 131.72351563 -117.03125 130.55078125 C-121.69401958 111.96446363 -120.3319994 90.55359046 -116 72 C-115.73316406 70.7728125 -115.46632813 69.545625 -115.19140625 68.28125 C-108.40453301 40.04785734 -93.99543145 13.53246447 -69 -2.3125 C-47.23711725 -14.78803788 -21.22463928 -12.19287789 0 0 Z M-50 48 C-56.77218486 57.36254556 -60.49985501 67.47165796 -61 79 C-47.11483094 76.0044686 -32.78021523 72.32279595 -24 60.25 C-22.42716408 55.13828325 -22.62710139 49.96665482 -24.8984375 45.05859375 C-26.35381842 42.78798067 -27.56526932 41.21736534 -30 40 C-37.66540317 39.2699616 -44.89370375 42.2137893 -50 48 Z " fill="#3EB2DE" transform="translate(122,76)"/>
<path d="M0 0 C5.11589582 4.09271666 9.67795187 9.789688 10.8125 16.375 C11.6100527 25.52724415 10.45243838 31.426943 5.05029297 38.77050781 C2.7695267 41.42501518 0.69511709 43.01113668 -2.2578125 44.86328125 C-3.2375 45.48783203 -4.2171875 46.11238281 -5.2265625 46.75585938 C-6.24492187 47.39330078 -7.26328125 48.03074219 -8.3125 48.6875 C-29.29655108 61.55022623 -29.29655108 61.55022623 -42.59765625 81.53515625 C-44.19976942 89.2486415 -44.92633372 98.38961366 -40.65625 105.34375 C-40.1715625 106.0140625 -39.686875 106.684375 -39.1875 107.375 C-38.4965625 108.3546875 -37.805625 109.334375 -37.09375 110.34375 C-32.76424161 116.28960819 -28.26617854 121.52916269 -22.86328125 126.5234375 C-7.4128524 141.08003989 2.25445095 159.83449328 3.125 181.25 C2.26525022 213.01016823 -19.24990931 241.52232416 -40.6640625 263.1171875 C-42.1875 264.375 -42.1875 264.375 -44.1875 264.375 C-44.5175 265.365 -44.8475 266.355 -45.1875 267.375 C-48.3187905 269.98757167 -51.77647746 272.14526343 -55.1875 274.375 C-56.00089844 274.91898437 -56.81429687 275.46296875 -57.65234375 276.0234375 C-69.48511736 283.57953605 -81.32078592 285.96675669 -95.1875 284.375 C-101.47905345 282.92250556 -106.80263838 280.17746749 -111.1875 275.375 C-115.70278854 267.71311975 -116.63573813 259.39423973 -114.5625 250.77734375 C-109.47918368 236.45782321 -97.50898974 225.19647989 -86.1484375 215.6640625 C-75.58231219 206.64817951 -65.22826523 195.40711141 -63.875 181.0625 C-65.16166647 165.87983563 -75.12456416 154.26030411 -84.0234375 142.5703125 C-112.29861946 105.30885297 -112.29861946 105.30885297 -109.6796875 80.4609375 C-107.3281784 65.71734867 -100.03752221 51.31550615 -91.1875 39.375 C-90.67960937 38.67632812 -90.17171875 37.97765625 -89.6484375 37.2578125 C-74.89007547 17.60331141 -55.06855374 -0.26050601 -30.26953125 -5.20703125 C-19.28032126 -6.69732969 -9.3168236 -6.31649058 0 0 Z " fill="#3EB2DE" transform="translate(276.1875,8.625)"/>
<path d="M0 0 C0.99 0.33 1.98 0.66 3 1 C3.06058594 1.60328125 3.12117187 2.2065625 3.18359375 2.828125 C3.26738281 3.62734375 3.35117187 4.4265625 3.4375 5.25 C3.55931641 6.43335937 3.55931641 6.43335937 3.68359375 7.640625 C3.93466059 9.92530988 3.93466059 9.92530988 4.5 11.79296875 C5.26708868 15.17894615 5.37574754 18.60604881 5.5625 22.0625 C5.60568359 22.76310547 5.64886719 23.46371094 5.69335938 24.18554688 C6.26935611 34.30663244 5.9705786 44.27692965 5.125 54.375 C5.03331543 55.47336182 4.94163086 56.57172363 4.84716797 57.70336914 C3.86378197 69.07809209 2.87455447 79.5173416 -2 90 C-2.66 89.67 -3.32 89.34 -4 89 C-3.66226563 87.83726562 -3.32453125 86.67453125 -2.9765625 85.4765625 C4.20513716 60.0495362 5.41382054 33.09631122 1 7 C0.66243013 4.66727581 0.32795517 2.33409532 0 0 Z " fill="#51A4C2" transform="translate(594,118)"/>
<path d="M0 0 C2 3 2 3 1.890625 5.3671875 C0.76783073 8.68632495 -0.87734693 10.55593525 -3.25 13.125 C-4.01828125 13.97320312 -4.7865625 14.82140625 -5.578125 15.6953125 C-11.20498161 21.04990186 -16.15774832 22.23017179 -23.671875 22.16796875 C-27.00273044 21.92765535 -29.8445855 21.07418366 -33 20 C-28.4193478 18.56293264 -23.84162855 18.97538296 -19.09375 19.0625 C-16.49410686 19.00998196 -14.46101749 18.77208392 -12 18 C-11.773125 16.96875 -11.54625 15.9375 -11.3125 14.875 C-10.13528144 10.65591742 -7.95161029 8.18463216 -5 5 C-3.68 5.99 -2.36 6.98 -1 8 C-1.0309375 6.2984375 -1.0309375 6.2984375 -1.0625 4.5625 C-1 1 -1 1 0 0 Z " fill="#4EACCF" transform="translate(732,269)"/>
<path d="M0 0 C0.66 0 1.32 0 2 0 C1.99476318 0.95028076 1.98952637 1.90056152 1.98413086 2.87963867 C1.89492058 20.6134584 1.84837804 38.29381241 3 56 C3.66 56.33 4.32 56.66 5 57 C5.33 57.66 5.66 58.32 6 59 C6.98731742 60.34275169 7.98594743 61.67732273 9 63 C8.34 63.99 7.68 64.98 7 66 C6.34 66 5.68 66 5 66 C5.33 66.66 5.66 67.32 6 68 C6.04022391 70.3329866 6.04320247 72.66706666 6 75 C5.67 75 5.34 75 5 75 C4.33971501 71.79447468 3.69968735 68.58518954 3.0625 65.375 C2.88009766 64.49070312 2.69769531 63.60640625 2.50976562 62.6953125 C-0.32587683 48.25931455 -0.13193072 33.76833168 -0.0625 19.125 C-0.05747112 17.26171996 -0.05291069 15.3984386 -0.04882812 13.53515625 C-0.03794131 9.02340405 -0.02075454 4.51171715 0 0 Z " fill="#4EA6C6" transform="translate(486,139)"/>
<path d="M0 0 C0.8971875 0.7734375 0.8971875 0.7734375 1.8125 1.5625 C2.534375 2.036875 3.25625 2.51125 4 3 C4.99 2.67 5.98 2.34 7 2 C7 1.34 7 0.68 7 0 C9.31 0.33 11.62 0.66 14 1 C4.01344713 7.65770191 -7.29171097 9.25847503 -19 10 C-18.01 12.97 -17.02 15.94 -16 19 C-16.66 19 -17.32 19 -18 19 C-18.33 17.35 -18.66 15.7 -19 14 C-19.66 14 -20.32 14 -21 14 C-21.6875 12.1875 -21.6875 12.1875 -22 10 C-20.859375 8.37109375 -20.859375 8.37109375 -19 7 C-16.44140625 6.7421875 -16.44140625 6.7421875 -13.5625 6.875 C-10.13574238 7.01486766 -7.29129322 7.01150855 -4 6 C-3.896875 5.38125 -3.79375 4.7625 -3.6875 4.125 C-3 2 -3 2 0 0 Z " fill="#44AFD3" transform="translate(82,194)"/>
<path d="M0 0 C3.6875 0.3125 3.6875 0.3125 7 1 C4.44619108 3.55380892 2.26208395 4.01849473 -1.1875 5.0625 C-2.29480469 5.40410156 -3.40210938 5.74570312 -4.54296875 6.09765625 C-11.58091152 7.9346786 -18.33889485 8.1555008 -25.5625 8.125 C-26.48224609 8.12886719 -27.40199219 8.13273437 -28.34960938 8.13671875 C-33.01329751 8.13001323 -37.41329728 7.9616049 -42 7 C-42 6.67 -42 6.34 -42 6 C-41.06728271 5.98018066 -40.13456543 5.96036133 -39.17358398 5.93994141 C-35.68635635 5.86146957 -32.19952938 5.77476486 -28.71264648 5.68261719 C-27.20849377 5.64452511 -25.70425608 5.60963908 -24.19995117 5.578125 C-22.02752477 5.53204105 -19.85567345 5.47412346 -17.68359375 5.4140625 C-16.37962646 5.3826416 -15.07565918 5.3512207 -13.73217773 5.31884766 C-6.95926124 4.83239844 -6.95926124 4.83239844 -1.5 1.3125 C-1.005 0.879375 -0.51 0.44625 0 0 Z " fill="#55AAC9" transform="translate(596,283)"/>
<path d="M0 0 C1.15717558 0.79626312 2.30751624 1.60309783 3.4375 2.4375 C2.7775 2.7675 2.1175 3.0975 1.4375 3.4375 C0.71304688 2.97085938 -0.01140625 2.50421875 -0.7578125 2.0234375 C-6.24904051 -1.08163015 -13.81358982 -0.44384515 -19.85546875 0.9765625 C-23.59045859 2.47715444 -26.4746713 4.91848185 -29.5625 7.4375 C-32.50541014 8.80128763 -35.39950632 9.73461252 -38.5625 10.4375 C-35.3892492 6.92566412 -31.83842686 4.6125134 -27.75 2.3125 C-27.15896484 1.96574219 -26.56792969 1.61898437 -25.95898438 1.26171875 C-17.20281736 -3.72270784 -8.85970647 -5.50992346 0 0 Z " fill="#53AAC7" transform="translate(149.5625,201.5625)"/>
<path d="M0 0 C0.66 0 1.32 0 2 0 C2.33773437 0.62648437 2.67546875 1.25296875 3.0234375 1.8984375 C3.46945313 2.71570313 3.91546875 3.53296875 4.375 4.375 C4.81585938 5.18710938 5.25671875 5.99921875 5.7109375 6.8359375 C6.9443893 9.10814302 6.9443893 9.10814302 9 11 C8.67 11.66 8.34 12.32 8 13 C8.66 13 9.32 13 10 13 C11.78602228 23.04637534 12.11348228 32.86878165 7 42 C6.34 42 5.68 42 5 42 C4.34 43.32 3.68 44.64 3 46 C3 41.95858414 4.75882509 39.75032422 6.80859375 36.3515625 C10.36083812 29.34024738 9.36140778 21.87650618 7.06640625 14.63671875 C5.52676696 10.82991832 3.44114087 7.46666917 1.20703125 4.03125 C0 2 0 2 0 0 Z " fill="#55A8C6" transform="translate(203,164)"/>
<path d="M0 0 C0.66 0.33 1.32 0.66 2 1 C1 3 1 3 -2 4.3125 C-5.23296223 5.68545206 -5.23296223 5.68545206 -5.875 8.6875 C-5.91625 9.450625 -5.9575 10.21375 -6 11 C-6.78375 10.731875 -7.5675 10.46375 -8.375 10.1875 C-13.72366989 9.91084466 -17.69065036 11.89726826 -22 15 C-23.73920313 18.10949479 -23.73920313 18.10949479 -24 21 C-24.33 21 -24.66 21 -25 21 C-25.11787499 18.11206266 -25.09138482 16.61829878 -24 14 C-19.09545103 9.15928464 -12.58313591 6.12528083 -6.5 3 C-5.88874268 2.68482422 -5.27748535 2.36964844 -4.64770508 2.04492188 C-3.12922003 1.2972814 -1.56681301 0.64020317 0 0 Z " fill="#50A8C7" transform="translate(708,27)"/>
<path d="M0 0 C0.33 0 0.66 0 1 0 C1.19466332 1.79090253 1.38051213 3.58276505 1.5625 5.375 C1.66691406 6.37273437 1.77132813 7.37046875 1.87890625 8.3984375 C2 11 2 11 1 13 C0.87086504 14.69237636 0.79767291 16.38920591 0.75390625 18.0859375 C0.72103516 19.09914062 0.68816406 20.11234375 0.65429688 21.15625 C0.59332467 23.29416904 0.53600549 25.43219552 0.48242188 27.5703125 C0.44826172 28.58609375 0.41410156 29.601875 0.37890625 30.6484375 C0.3538501 31.57833496 0.32879395 32.50823242 0.30297852 33.46630859 C-0.00848552 36.07096113 -0.68248645 37.75241875 -2 40 C-2.05907207 35.77089411 -2.09395041 31.54189711 -2.125 27.3125 C-2.14175781 26.13365234 -2.15851563 24.95480469 -2.17578125 23.74023438 C-2.22016577 15.64005941 -1.47369081 7.96407765 0 0 Z " fill="#55A7C4" transform="translate(5,153)"/>
<path d="M0 0 C-0.65484375 0.37769531 -1.3096875 0.75539062 -1.984375 1.14453125 C-12.93935169 7.75155815 -22.64613824 15.71353503 -29 27 C-30 24 -30 24 -29.1875 21.375 C-28 19 -28 19 -26 18 C-25.67 17.01 -25.34 16.02 -25 15 C-24.01 15 -23.02 15 -22 15 C-22 14.34 -22 13.68 -22 13 C-20.14366088 10.87846958 -18.38006962 9.58671308 -16 8 C-15.34 8 -14.68 8 -14 8 C-14 7.01 -14 6.02 -14 5 C-13.195625 4.71125 -12.39125 4.4225 -11.5625 4.125 C-8.8673532 3.26737432 -8.8673532 3.26737432 -8 1 C-3.6 -1.2 -3.6 -1.2 0 0 Z " fill="#51AAC9" transform="translate(264,60)"/>
<path d="M0 0 C1.65 0 3.3 0 5 0 C5 0.66 5 1.32 5 2 C5.99 2.33 6.98 2.66 8 3 C8.8971875 3.7115625 8.8971875 3.7115625 9.8125 4.4375 C15.28574375 8.34695982 20.93225259 8.25858168 27.375 8.125 C28.62216797 8.11146484 28.62216797 8.11146484 29.89453125 8.09765625 C31.92981337 8.0742622 33.96494564 8.03839725 36 8 C30.33174529 11.77883647 21.67025496 10.60038298 15 10 C8.07578451 8.52818608 3.96489116 5.8151737 0 0 Z " fill="#53A8C7" transform="translate(166,283)"/>
<path d="M0 0 C1.62490954 -0.02698189 3.24994633 -0.04638757 4.875 -0.0625 C6.23238281 -0.07990234 6.23238281 -0.07990234 7.6171875 -0.09765625 C10 0 10 0 12 1 C12.625 3.5625 12.625 3.5625 13 6 C12.34 5.67 11.68 5.34 11 5 C6.57780114 3.52593371 2.47759434 3.11729432 -1.9296875 4.6875 C-6.35965975 6.96903077 -8.55946037 9.70465025 -11 14 C-11.33 13.01 -11.66 12.02 -12 11 C-11.67 10.34 -11.34 9.68 -11 9 C-10.34 9 -9.68 9 -9 9 C-8.67 7.35 -8.34 5.7 -8 4 C-4.535 3.505 -4.535 3.505 -1 3 C-0.67 2.01 -0.34 1.02 0 0 Z " fill="#51AACB" transform="translate(571,92)"/>
<path d="M0 0 C3.17432368 2.59717392 4.09388894 5.0270515 5 9 C5.70886076 19.93670886 5.70886076 19.93670886 3 24 C3 23.01 3 22.02 3 21 C1.02 21.99 1.02 21.99 -1 23 C-1.33 21.35 -1.66 19.7 -2 18 C-0.02 18.99 -0.02 18.99 2 20 C2.1080023 17.89695523 2.18558987 15.79233091 2.25 13.6875 C2.31960938 11.92986328 2.31960938 11.92986328 2.390625 10.13671875 C2.32434604 6.90299431 2.32434604 6.90299431 -0.015625 5.08203125 C-0.67046875 4.72496094 -1.3253125 4.36789063 -2 4 C-1.34 2.68 -0.68 1.36 0 0 Z " fill="#50ABCE" transform="translate(282,16)"/>
<path d="M0 0 C2.81267676 1.42723938 5.30814297 3.05104702 7.83984375 4.93359375 C7.50984375 5.59359375 7.17984375 6.25359375 6.83984375 6.93359375 C4.81938933 6.33175626 2.81873336 5.66053279 0.83984375 4.93359375 C0.34484375 3.94359375 0.34484375 3.94359375 -0.16015625 2.93359375 C-7.3608591 -0.64215391 -15.36212373 -1.2270727 -23.09765625 0.80859375 C-26.27178594 1.83917617 -26.27178594 1.83917617 -29.16015625 3.93359375 C-30.15015625 3.60359375 -31.14015625 3.27359375 -32.16015625 2.93359375 C-22.93130121 -3.42406195 -10.56036458 -4.23630748 0 0 Z " fill="#5FA6C5" transform="translate(346.16015625,15.06640625)"/>
<path d="M0 0 C0.33 0 0.66 0 1 0 C1.98831156 6.53686384 2.11883529 12.89577115 2.0625 19.5 C2.05798828 20.51320313 2.05347656 21.52640625 2.04882812 22.5703125 C2.03714593 25.04693827 2.02076582 27.52343657 2 30 C3.98 29.34 5.96 28.68 8 28 C7.34 29.32 6.68 30.64 6 32 C4.02 32 2.04 32 0 32 C0 21.44 0 10.88 0 0 Z " fill="#57ACCC" transform="translate(743,104)"/>
<path d="M0 0 C0 0.66 0 1.32 0 2 C-0.61875 2.2475 -1.2375 2.495 -1.875 2.75 C-4.35068687 4.20628639 -4.95125002 5.37812506 -6 8 C-7.093125 7.979375 -8.18625 7.95875 -9.3125 7.9375 C-12.94384191 7.81455548 -12.94384191 7.81455548 -16 9 C-23.73158988 9.73769298 -31.03087351 8.48456325 -38 5 C-38 4.34 -38 3.68 -38 3 C-37.46632813 3.20496094 -36.93265625 3.40992188 -36.3828125 3.62109375 C-26.67164522 7.13257119 -18.69792576 8.02861908 -9 4 C-1.27142857 0 -1.27142857 0 0 0 Z " fill="#56A7C2" transform="translate(108,214)"/>
<path d="M0 0 C0.91007812 -0.01224609 1.82015625 -0.02449219 2.7578125 -0.03710938 C3.62664062 -0.03904297 4.49546875 -0.04097656 5.390625 -0.04296875 C6.17985352 -0.04707764 6.96908203 -0.05118652 7.78222656 -0.05541992 C9.75 0.1875 9.75 0.1875 11.75 2.1875 C5.15 1.8575 -1.45 1.5275 -8.25 1.1875 C-8.25 1.8475 -8.25 2.5075 -8.25 3.1875 C-10.66474617 3.71910457 -13.08108107 4.23804766 -15.5 4.75 C-16.18191406 4.90146484 -16.86382812 5.05292969 -17.56640625 5.20898438 C-21.06769038 5.93983495 -23.85298173 6.50953546 -27.25 5.1875 C-25.54422658 4.53493544 -23.83523911 3.89076959 -22.125 3.25 C-21.17367187 2.89035156 -20.22234375 2.53070313 -19.2421875 2.16015625 C-12.84956627 0.08213708 -6.65746847 0.00479645 0 0 Z " fill="#51A6C7" transform="translate(85.25,65.8125)"/>
<path d="M0 0 C2.56602757 2.56602757 3.02142699 4.78239561 4.0625 8.25 C4.40410156 9.36890625 4.74570312 10.4878125 5.09765625 11.640625 C6.43194108 16.60809232 7.13198558 21.23306704 7.0625 26.375 C7.05347656 27.24898437 7.04445313 28.12296875 7.03515625 29.0234375 C7.02355469 29.67570312 7.01195312 30.32796875 7 31 C6.34 31 5.68 31 5 31 C4.93941406 30.00097656 4.87882813 29.00195312 4.81640625 27.97265625 C4.73261719 26.68230469 4.64882813 25.39195313 4.5625 24.0625 C4.48128906 22.77472656 4.40007813 21.48695312 4.31640625 20.16015625 C4.35080812 17.13976043 4.35080812 17.13976043 3 16 C2.95919217 14.00041636 2.95745644 11.99954746 3 10 C2.360625 9.71125 1.72125 9.4225 1.0625 9.125 C-1 8 -1 8 -2 6 C-1.39421747 3.98072489 -0.73080266 1.97746603 0 0 Z " fill="#4DA8C8" transform="translate(836,55)"/>
<path d="M0 0 C1.0828125 0.2475 1.0828125 0.2475 2.1875 0.5 C4.86427545 0.97587119 7.28949487 1.077443 10 1 C9.67 1.66 9.34 2.32 9 3 C12.23035533 5.15357022 13.31133458 5.29592637 17.0625 5.3125 C17.94035156 5.32925781 18.81820313 5.34601563 19.72265625 5.36328125 C20.84994141 5.18345703 20.84994141 5.18345703 22 5 C22.66 4.01 23.32 3.02 24 2 C25.9453125 1.48828125 25.9453125 1.48828125 28.125 1.3125 C29.40375 1.209375 30.6825 1.10625 32 1 C28.59692761 4.64614899 26.13887462 6.72467061 21.1171875 7.37109375 C13.33773471 7.53043194 7.45570373 6.55209878 1 2 C0.67 1.34 0.34 0.68 0 0 Z " fill="#58A7C5" transform="translate(410,282)"/>
<path d="M0 0 C6.72 0.72 6.72 0.72 8 2 C9.68505122 2.06284005 11.37267547 2.05937577 13.05859375 2.02734375 C14.08404297 2.01509766 15.10949219 2.00285156 16.16601562 1.99023438 C18.34316654 1.95514 20.52025738 1.91609138 22.69726562 1.87304688 C23.72400391 1.86208984 24.75074219 1.85113281 25.80859375 1.83984375 C27.22869751 1.81458618 27.22869751 1.81458618 28.67749023 1.78881836 C31 2 31 2 33 4 C21.97743119 6.05071048 9.10454437 6.45324617 -1 1 C-0.67 0.67 -0.34 0.34 0 0 Z " fill="#52A9C9" transform="translate(61,276)"/>
<path d="M0 0 C0.99 0.66 1.98 1.32 3 2 C2.34 3.32 1.68 4.64 1 6 C0.34 6 -0.32 6 -1 6 C-1.2475 6.639375 -1.495 7.27875 -1.75 7.9375 C-2.45179233 9.65689122 -3.17164404 11.37001954 -3.953125 13.0546875 C-7.62194637 20.96729478 -9.23747789 28.33132754 -10 37 C-10.33 37 -10.66 37 -11 37 C-12.11345004 23.29837869 -6.27290618 11.75288883 0 0 Z " fill="#57A7C9" transform="translate(178,59)"/>
<path d="M0 0 C0.33 0 0.66 0 1 0 C1.31324171 3.34124491 0.81812053 5.70237735 -0.4375 8.75 C-2.201049 13.10896073 -2.68680425 17.33446338 -3 22 C-3.66 22 -4.32 22 -5 22 C-5 28.6 -5 35.2 -5 42 C-5.33 42 -5.66 42 -6 42 C-6.36979968 27.0790569 -6.55316491 13.73044076 0 0 Z " fill="#57A7C5" transform="translate(309,25)"/>
<path d="M0 0 C0.66 0.33 1.32 0.66 2 1 C0.50260417 2.20442708 -0.99479167 3.40885417 -2.4921875 4.61328125 C-4.25292107 6.12270545 -4.25292107 6.12270545 -6 9 C-6.886875 9.4125 -7.77375 9.825 -8.6875 10.25 C-15.24978932 13.71686983 -19.78916209 19.79127223 -24.51953125 25.3984375 C-26 27 -26 27 -28 28 C-26.35085478 24.02095774 -23.63235437 21.06438121 -20.75 17.9375 C-20.23147461 17.37329346 -19.71294922 16.80908691 -19.17871094 16.2277832 C-13.36781408 10.07846275 -6.7911104 5.01296463 0 0 Z " fill="#5AA7C3" transform="translate(217,16)"/>
<path d="M0 0 C-1.38912907 1.7553265 -2.78661773 3.50403907 -4.1875 5.25 C-4.96480469 6.22453125 -5.74210938 7.1990625 -6.54296875 8.203125 C-8.86866597 10.85050053 -11.12485125 12.97048323 -14 15 C-14.66 15 -15.32 15 -16 15 C-14.54744301 11.17053157 -12.57104439 9.87949705 -9 8 C-9.33 6.02 -9.66 4.04 -10 2 C-8.71211992 1.46987262 -7.41953322 0.9511671 -6.125 0.4375 C-5.40570312 0.14746094 -4.68640625 -0.14257812 -3.9453125 -0.44140625 C-2 -1 -2 -1 0 0 Z " fill="#49B0D5" transform="translate(635,257)"/>
<path d="M0 0 C0.33 0 0.66 0 1 0 C0.71480318 12.23753627 -3.01000748 24.35112441 -9 35 C-9.66 34.01 -10.32 33.02 -11 32 C-10.34 30.68 -9.68 29.36 -9 28 C-8.34 28 -7.68 28 -7 28 C-6.87882812 27.40832031 -6.75765625 26.81664062 -6.6328125 26.20703125 C-6.38144531 25.02173828 -6.38144531 25.02173828 -6.125 23.8125 C-5.96257812 23.03519531 -5.80015625 22.25789063 -5.6328125 21.45703125 C-5 19 -5 19 -3.9609375 16.5859375 C-2.50572082 12.66986661 -2.54801754 8.78605557 -2.34375 4.64453125 C-2 2 -2 2 0 0 Z " fill="#51A9C3" transform="translate(458,242)"/>
<path d="M0 0 C5.75 0.75 5.75 0.75 8 3 C10.06874034 3.6425235 10.06874034 3.6425235 12 4 C12 5.32 12 6.64 12 8 C12.78375 8.309375 13.5675 8.61875 14.375 8.9375 C17 10 17 10 19 11 C19 11.66 19 12.32 19 13 C11.52614356 11.22987611 4.30531036 6.36681076 0 0 Z " fill="#49ACCE" transform="translate(523,272)"/>
<path d="M0 0 C0.66 0 1.32 0 2 0 C2 1.65 2 3.3 2 5 C2.66 5.33 3.32 5.66 4 6 C4 5.34 4 4.68 4 4 C4.66 4.33 5.32 4.66 6 5 C7 8 7 8 6.4375 9.875 C5.83440084 12.80433876 6.8184714 14.26382851 8 17 C8.73613229 19.65304053 9.3641366 22.32028997 10 25 C6.4081494 23.2040747 5.44740295 18.86012998 3.875 15.3125 C3.50246094 14.50876953 3.12992187 13.70503906 2.74609375 12.87695312 C0.75513462 8.41735053 -0.49976577 4.98959692 0 0 Z " fill="#4BACCE" transform="translate(497,227)"/>
<path d="M0 0 C1.32 0.33 2.64 0.66 4 1 C2.25113898 2.91771657 0.50095499 4.83419683 -1.25 6.75 C-1.74113281 7.28882813 -2.23226562 7.82765625 -2.73828125 8.3828125 C-8.71419736 14.91648078 -8.71419736 14.91648078 -11 17 C-11.66 17 -12.32 17 -13 17 C-13.33 17.99 -13.66 18.98 -14 20 C-16.0625 21.1875 -16.0625 21.1875 -18 22 C-18.33 21.01 -18.66 20.02 -19 19 C-17.35 18.67 -15.7 18.34 -14 18 C-14 17.34 -14 16.68 -14 16 C-13.34 16 -12.68 16 -12 16 C-11.773125 15.4225 -11.54625 14.845 -11.3125 14.25 C-9.67490316 11.44269113 -7.52735142 10.00892036 -5 8 C-4.67 7.01 -4.34 6.02 -4 5 C-3.01 4.67 -2.02 4.34 -1 4 C-0.26676204 1.98491642 -0.26676204 1.98491642 0 0 Z " fill="#55AAC7" transform="translate(245,256)"/>
<path d="M0 0 C0 3 0 3 -1 6 C-1.47050781 6.44988281 -1.94101562 6.89976563 -2.42578125 7.36328125 C-4.4320369 9.44918973 -5.17113397 11.48887295 -6.1875 14.1875 C-6.53167969 15.08855469 -6.87585938 15.98960938 -7.23046875 16.91796875 C-7.48441406 17.60503906 -7.73835938 18.29210937 -8 19 C-8.99 19 -9.98 19 -11 19 C-11 20.32 -11 21.64 -11 23 C-11.66 23 -12.32 23 -13 23 C-13 23.99 -13 24.98 -13 26 C-13.66 26 -14.32 26 -15 26 C-13.60744187 21.31529163 -11.628215 17.21034828 -9.1875 13 C-8.85685547 12.40960938 -8.52621094 11.81921875 -8.18554688 11.2109375 C-5.82236481 7.09237835 -3.12380904 3.57629796 0 0 Z " fill="#54A7C5" transform="translate(518,46)"/>
<path d="M0 0 C-1.8125 1.0625 -1.8125 1.0625 -4 2 C-4.99 1.67 -5.98 1.34 -7 1 C-9.51341281 0.87829195 -11.98690901 0.81489342 -14.5 0.8125 C-15.17675781 0.80025391 -15.85351562 0.78800781 -16.55078125 0.77539062 C-20.26357044 0.76440604 -21.82983076 0.88655384 -25 3 C-26.32 2.01 -27.64 1.02 -29 0 C-19.45337773 -2.63355097 -9.39598734 -3.59300275 0 0 Z " fill="#53A8C5" transform="translate(269,5)"/>
<path d="M0 0 C2.95838991 2.44388731 3.4915288 4.24150669 4 8 C4.17660156 9.24394531 4.35320312 10.48789062 4.53515625 11.76953125 C4.71262334 13.11696654 4.88837312 14.46462899 5.0625 15.8125 C5.15337891 16.50537109 5.24425781 17.19824219 5.33789062 17.91210938 C5.56009465 19.60787692 5.78025527 21.30391201 6 23 C0.48238293 16.24594212 -0.40991673 8.47161252 0 0 Z " fill="#4DAED0" transform="translate(298,248)"/>
<path d="M0 0 C0.99 0.33 1.98 0.66 3 1 C2.85892253 2.45880109 2.71197585 3.91703551 2.5625 5.375 C2.48128906 6.18710938 2.40007812 6.99921875 2.31640625 7.8359375 C2 10 2 10 1 12 C0.84558791 14.10374996 0.75007361 16.21195119 0.68359375 18.3203125 C0.64169922 19.57714844 0.59980469 20.83398438 0.55664062 22.12890625 C0.51732422 23.44761719 0.47800781 24.76632813 0.4375 26.125 C0.39430488 27.46485751 0.35069027 28.80470156 0.30664062 30.14453125 C0.20029019 33.42957815 0.09826192 36.71470281 0 40 C-0.33 40 -0.66 40 -1 40 C-1.02495303 35.74992247 -1.0429783 31.49988519 -1.05493164 27.24975586 C-1.05992148 25.807691 -1.06671573 24.36563109 -1.07543945 22.92358398 C-1.1208459 15.21784327 -1.08531842 7.64850379 0 0 Z " fill="#57A8C6" transform="translate(397,219)"/>
<path d="M0 0 C0.66 0.33 1.32 0.66 2 1 C1.071875 2.051875 1.071875 2.051875 0.125 3.125 C-2.13364253 5.85253913 -2.13364253 5.85253913 -2.9375 9 C-4.23767103 12.67107114 -6.16840883 14.38077816 -9 17 C-9.66 17.99 -10.32 18.98 -11 20 C-11.66 20 -12.32 20 -13 20 C-10.17619669 12.38509913 -5.29907615 6.07835206 0 0 Z " fill="#51A9CC" transform="translate(34,90)"/>
<path d="M0 0 C-1.97420135 2.52259061 -2.96745642 2.9929808 -6.1875 3.6875 C-7.5796875 3.8421875 -7.5796875 3.8421875 -9 4 C-9 4.66 -9 5.32 -9 6 C-11.61381519 8.71836779 -12.91054943 8.99552747 -16.75 9.1875 C-18.35875 9.0946875 -18.35875 9.0946875 -20 9 C-16.48317861 6.02173244 -12.98697971 3.76410128 -8.875 1.6875 C-7.84117187 1.15511719 -6.80734375 0.62273438 -5.7421875 0.07421875 C-3 -1 -3 -1 0 0 Z " fill="#55A8C9" transform="translate(239,7)"/>
<path d="M0 0 C0.66 0.33 1.32 0.66 2 1 C-5.75588973 8.174198 -12.3273636 9.33519064 -22.73046875 9.30078125 C-25.88989141 9.01012946 -28.14893106 8.34768042 -31 7 C-27.25 5.875 -27.25 5.875 -25 7 C-16.42634819 8.07554772 -9.56365546 6.00643066 -2 2 C-1.34 1.34 -0.68 0.68 0 0 Z " fill="#56A9C7" transform="translate(345,275)"/>
<path d="M0 0 C-0.32484375 1.33804688 -0.32484375 1.33804688 -0.65625 2.703125 C-0.9346875 3.87359375 -1.213125 5.0440625 -1.5 6.25 C-1.7784375 7.41015625 -2.056875 8.5703125 -2.34375 9.765625 C-3.13256452 13.10330712 -3.13256452 13.10330712 -3 17 C2.445 16.01 2.445 16.01 8 15 C4.96387581 18.03612419 1.56302458 18.96833235 -2.69921875 19.0546875 C-3.83810547 19.02761719 -3.83810547 19.02761719 -5 19 C-5.08117951 16.58265458 -5.14056926 14.16805051 -5.1875 11.75 C-5.21263672 11.06808594 -5.23777344 10.38617188 -5.26367188 9.68359375 C-5.31021876 6.48737398 -5.18591611 4.33307787 -3.61328125 1.515625 C-2 0 -2 0 0 0 Z " fill="#55A4C3" transform="translate(65,137)"/>
<path d="M0 0 C0.66 0 1.32 0 2 0 C4.55470005 8.90924808 4.16580453 18.80706019 4 28 C3.67 28 3.34 28 3 28 C0.9550996 22.00661307 0.58183841 16.36676239 0.375 10.0625 C0.33632813 9.09248047 0.29765625 8.12246094 0.2578125 7.12304688 C0.16424924 4.74887924 0.07850792 2.37470508 0 0 Z " fill="#50A5C6" transform="translate(656,112)"/>
<path d="M0 0 C2.4728992 1.5156479 3.80696998 2.3460377 4.64453125 5.18359375 C5.6664075 13.27999791 4.94322052 21.79933643 1 29 C-0.36154812 25.5961297 0.44207908 23.5046478 1.51171875 20.12109375 C3.07364866 13.33607022 2.30657802 6.48725069 0 0 Z " fill="#56A7BE" transform="translate(153,205)"/>
<path d="M0 0 C7.06095454 5.70885686 15.02984294 12.18381951 18 21 C17.01 20.34 16.02 19.68 15 19 C15 18.34 15 17.68 15 17 C14.54625 17.495 14.0925 17.99 13.625 18.5 C12 20 12 20 10 20 C10.27714844 18.96488281 10.55429687 17.92976563 10.83984375 16.86328125 C11.41765134 12.87900122 11.41765134 12.87900122 8.69140625 9.98046875 C7.66782335 9.02820646 6.6238831 8.09744029 5.5625 7.1875 C3.67363749 5.48729367 1.8298274 3.76541747 0 2 C0 1.34 0 0.68 0 0 Z " fill="#4FAACA" transform="translate(248,131)"/>
<path d="M0 0 C0.33 1.32 0.66 2.64 1 4 C-0.02083333 4.875 -1.04166667 5.75 -2.0625 6.625 C-2.69929688 7.17285156 -3.33609375 7.72070312 -3.9921875 8.28515625 C-5.28095112 9.38587071 -6.57725472 10.47785193 -7.8828125 11.55859375 C-11.36018012 14.4564001 -14.29907254 17.32673865 -17 21 C-17.99 20.67 -18.98 20.34 -20 20 C-8.31762509 8.14497915 -8.31762509 8.14497915 -3.8125 4.375 C-0.98963873 2.30830705 -0.98963873 2.30830705 0 0 Z " fill="#57A7CA" transform="translate(201,213)"/>
<path d="M0 0 C0.33 0 0.66 0 1 0 C1.14036598 10.71460306 0.73259082 21.3120232 0 32 C-0.33 32 -0.66 32 -1 32 C-1.8598024 20.99685311 -2.35969025 10.8623758 0 0 Z " fill="#51A4C3" transform="translate(462,191)"/>
<path d="M0 0 C0 0.66 0 1.32 0 2 C-0.639375 2.103125 -1.27875 2.20625 -1.9375 2.3125 C-2.618125 2.539375 -3.29875 2.76625 -4 3 C-4.33 3.99 -4.66 4.98 -5 6 C-6.89955933 6.93311686 -8.80209369 7.86091498 -10.72265625 8.75 C-14.63666454 10.89834074 -17.7735266 13.94514753 -21 17 C-21 16.01 -21 15.02 -21 14 C-6.73782772 0 -6.73782772 0 0 0 Z " fill="#5BA5BE" transform="translate(58,72)"/>
<path d="M0 0 C1.32 0.33 2.64 0.66 4 1 C2.58963629 3.25417105 1.17206458 5.50322712 -0.25 7.75 C-0.64574219 8.38421875 -1.04148437 9.0184375 -1.44921875 9.671875 C-3.67961157 13.18200141 -5.89552703 16.18034106 -9 19 C-10 18 -10 18 -10.0625 15.4375 C-10.041875 14.633125 -10.02125 13.82875 -10 13 C-9.40703125 12.91363281 -8.8140625 12.82726562 -8.203125 12.73828125 C-5.38641765 11.79438464 -4.49527105 10.56300782 -2.75 8.1875 C-2.22921875 7.50042969 -1.7084375 6.81335938 -1.171875 6.10546875 C0.32422066 3.81908762 0.32422066 3.81908762 0 0 Z " fill="#4FA9C9" transform="translate(259,236)"/>
<path d="M0 0 C1.98 0.66 3.96 1.32 6 2 C6 2.66 6 3.32 6 4 C6.99 5.485 6.99 5.485 8 7 C7.67 7.33 7.34 7.66 7 8 C7.020625 9.051875 7.04125 10.10375 7.0625 11.1875 C7.0011347 14.93078349 6.35021745 17.54006778 5 21 C4.67 21 4.34 21 4 21 C4.04125 19.865625 4.0825 18.73125 4.125 17.5625 C4.125 11.32675731 2.95359678 5.51007131 0 0 Z " fill="#48ABCD" transform="translate(776,84)"/>
<path d="M0 0 C-0.71027344 0.18691406 -1.42054688 0.37382813 -2.15234375 0.56640625 C-5.36550562 1.71557354 -7.47448484 2.67669815 -10 5 C-11.22148841 10.05814585 -11.22143183 14.82240281 -11 20 C-11.66 20 -12.32 20 -13 20 C-13.09706112 13.88514973 -12.77040851 8.06696699 -12 2 C-10.37787941 1.47026689 -8.75218416 0.95146893 -7.125 0.4375 C-6.22007812 0.14746094 -5.31515625 -0.14257812 -4.3828125 -0.44140625 C-2 -1 -2 -1 0 0 Z " fill="#59A7C9" transform="translate(754,84)"/>
<path d="M0 0 C1.06283203 -0.00386719 2.12566406 -0.00773438 3.22070312 -0.01171875 C8.23200441 -0.00545854 13.01588193 0.05026191 17.9375 1.125 C17.9375 1.455 17.9375 1.785 17.9375 2.125 C17.17083008 2.11976318 16.40416016 2.11452637 15.61425781 2.10913086 C12.13868022 2.08833636 8.66311573 2.07533191 5.1875 2.0625 C3.9809375 2.05412109 2.774375 2.04574219 1.53125 2.03710938 C0.37109375 2.03388672 -0.7890625 2.03066406 -1.984375 2.02734375 C-3.05268555 2.02210693 -4.12099609 2.01687012 -5.22167969 2.01147461 C-7.69961246 2.11049822 -9.69556462 2.45023891 -12.0625 3.125 C-13.47784778 3.18956879 -14.89587689 3.21111039 -16.3125 3.1875 C-18.16875 3.1565625 -18.16875 3.1565625 -20.0625 3.125 C-19.7325 2.465 -19.4025 1.805 -19.0625 1.125 C-12.78799311 -0.25382071 -6.39551772 -0.02335551 0 0 Z " fill="#5AA4C1" transform="translate(770.0625,10.875)"/>
<path d="M0 0 C4.875 4.75 4.875 4.75 6 7 C7.32 7 8.64 7 10 7 C11 13.625 11 13.625 11 17 C9.72528295 15.44066679 8.45539786 13.87738294 7.1875 12.3125 C6.47980469 11.44238281 5.77210937 10.57226562 5.04296875 9.67578125 C0 3.0707457 0 3.0707457 0 0 Z " fill="#55A9CD" transform="translate(20,241)"/>
<path d="M0 0 C1.32 0.66 2.64 1.32 4 2 C-1.94 2.495 -1.94 2.495 -8 3 C-7.01 5.97 -6.02 8.94 -5 12 C-5.66 12 -6.32 12 -7 12 C-7.33 10.35 -7.66 8.7 -8 7 C-8.66 7 -9.32 7 -10 7 C-10.6875 5.1875 -10.6875 5.1875 -11 3 C-8.77018777 -1.16231617 -4.15049259 -0.61341253 0 0 Z " fill="#51A8CD" transform="translate(71,201)"/>
<path d="M0 0 C-0.70125 0.45375 -1.4025 0.9075 -2.125 1.375 C-5.52777047 4.48187739 -7.42473187 7.76852053 -9.66796875 11.7578125 C-11 14 -11 14 -13 16 C-13 13.36 -13 10.72 -13 8 C-12.01 7.67 -11.02 7.34 -10 7 C-9.95875 6.236875 -9.9175 5.47375 -9.875 4.6875 C-9 2 -9 2 -6.125 0.125 C-3 -1 -3 -1 0 0 Z " fill="#4AAFD1" transform="translate(78,120)"/>
<path d="M0 0 C2.1875 0.3125 2.1875 0.3125 4 1 C2.67997942 4.57294032 1.10478612 7.63953492 -1 10.8125 C-1.515625 11.60269531 -2.03125 12.39289063 -2.5625 13.20703125 C-3.036875 13.79871094 -3.51125 14.39039063 -4 15 C-4.66 15 -5.32 15 -6 15 C-4.79135813 11.56001929 -3.61442808 9.50075729 -1 7 C-0.67 6.01 -0.34 5.02 0 4 C-0.99 3.67 -1.98 3.34 -3 3 C-1.75 1.4375 -1.75 1.4375 0 0 Z " fill="#4BADCB" transform="translate(149,233)"/>
<path d="M0 0 C0.6875 1.5625 0.6875 1.5625 1 4 C0.27995071 5.70193468 -0.44739829 7.40197119 -1.2421875 9.0703125 C-2.05686024 11.14478845 -2.30779858 12.91050539 -2.5 15.125 C-2.99298037 18.9455979 -3.78312196 20.91564795 -6 24 C-7.71970572 19.90397364 -6.10764451 16.4996486 -4.6875 12.5625 C-4.46126953 11.90701172 -4.23503906 11.25152344 -4.00195312 10.57617188 C-2.76137312 7.01173883 -1.43284929 3.49130883 0 0 Z " fill="#53A5C4" transform="translate(500,77)"/>
<path d="M0 0 C4.66883867 4.66883867 4.125 12.91003488 4.125 19.125 C4.093338 21.08352063 4.05524131 23.04200257 4 25 C3.67 25 3.34 25 3 25 C2.67 20.71 2.34 16.42 2 12 C1.34 12 0.68 12 0 12 C0 8.04 0 4.08 0 0 Z " fill="#4FA3C6" transform="translate(364,39)"/>
<path d="M0 0 C2.57798841 0.36363205 3.69164073 0.59533633 5.30078125 2.70703125 C5.63464844 3.40183594 5.96851563 4.09664062 6.3125 4.8125 C6.65925781 5.49957031 7.00601562 6.18664062 7.36328125 6.89453125 C8.10314333 9.34106905 7.82973374 10.61786119 7 13 C6.67 12.01 6.34 11.02 6 10 C4.989375 9.401875 3.97875 8.80375 2.9375 8.1875 C1.968125 7.465625 0.99875 6.74375 0 6 C-0.375 2.75 -0.375 2.75 0 0 Z " fill="#49ABCE" transform="translate(267,158)"/>
<path d="M0 0 C0 3 0 3 -1.25 4.578125 C-3.15552483 6.39858176 -5.06333259 8.21258703 -7 10 C-7.70640625 10.66386719 -8.4128125 11.32773438 -9.140625 12.01171875 C-14.60446247 17 -14.60446247 17 -18 17 C-16.57726177 13.48455687 -15.04063873 12.11549336 -11.8125 10.1875 C-7.25133468 7.30171418 -3.64371847 3.96005416 0 0 Z " fill="#53A8C4" transform="translate(775,113)"/>
<path d="M0 0 C0.33 0 0.66 0 1 0 C1.39363688 7.74152536 -0.05789567 14.52058632 -2 22 C-2.33 22 -2.66 22 -3 22 C-3.33 18.7 -3.66 15.4 -4 12 C-3.01 11.67 -2.02 11.34 -1 11 C-0.67 7.37 -0.34 3.74 0 0 Z " fill="#4EA6C7" transform="translate(842,94)"/>
<path d="M0 0 C3.16407888 3.16407888 3.59374529 7.24339336 4.6875 11.5 C4.92533203 12.38042969 5.16316406 13.26085937 5.40820312 14.16796875 C5.62798828 15.00972656 5.84777344 15.85148437 6.07421875 16.71875 C6.27619873 17.49154297 6.47817871 18.26433594 6.6862793 19.06054688 C7 21 7 21 6 23 C5 22 5 22 4.9375 19.4375 C4.958125 18.633125 4.97875 17.82875 5 17 C4.34 17 3.68 17 3 17 C3 15.35 3 13.7 3 12 C2.01 11.67 1.02 11.34 0 11 C0 7.37 0 3.74 0 0 Z " fill="#50A6C4" transform="translate(648,73)"/>
<path d="M0 0 C1.34313399 0.64669414 2.67391178 1.31903578 4 2 C4.804375 2.4125 5.60875 2.825 6.4375 3.25 C9.66796827 5.45617346 11.602164 7.91706801 14 11 C13.67 11.66 13.34 12.32 13 13 C12.2575 12.21625 11.515 11.4325 10.75 10.625 C8.46457031 8.44345348 6.9455578 7.01570959 4 6 C3.01 6.495 3.01 6.495 2 7 C0 1.125 0 1.125 0 0 Z " fill="#4BACCC" transform="translate(120,76)"/>
<path d="M0 0 C0.66 0 1.32 0 2 0 C2 0.66 2 1.32 2 2 C-0.07386005 3.61234483 -2.13739861 5.09933403 -4.3125 6.5625 C-5.20485352 7.1802832 -5.20485352 7.1802832 -6.11523438 7.81054688 C-8.72285794 9.59072341 -10.98996145 10.99665382 -14 12 C-14.66 11.34 -15.32 10.68 -16 10 C-14.865625 9.566875 -13.73125 9.13375 -12.5625 8.6875 C-11.386875 8.130625 -10.21125 7.57375 -9 7 C-8.67 6.01 -8.34 5.02 -8 4 C-5.69747517 2.93097061 -3.3627974 1.92824183 -1 1 C-0.67 0.67 -0.34 0.34 0 0 Z " fill="#53ACCC" transform="translate(132,257)"/>
<path d="M0 0 C-0.28482368 1.41805831 -0.57818144 2.83440379 -0.875 4.25 C-1.03742188 5.03890625 -1.19984375 5.8278125 -1.3671875 6.640625 C-1.99150075 8.96831144 -2.84838542 10.89031952 -4 13 C-6.0169518 9.47033435 -6.2707078 6.89495459 -5.6875 2.8125 C-5.460625 2.214375 -5.23375 1.61625 -5 1 C-2 0 -2 0 0 0 Z " fill="#4FADD0" transform="translate(360,249)"/>
<path d="M0 0 C0.33 0 0.66 0 1 0 C1.36521739 5.47826087 1.36521739 5.47826087 -0.3125 7.875 C-2 9 -2 9 -5 9 C-5.66 10.98 -6.32 12.96 -7 15 C-7.66 15 -8.32 15 -9 15 C-7.01888466 9.38683988 -3.72539192 4.61238999 0 0 Z " fill="#51A9CC" transform="translate(188,44)"/>
<path d="M0 0 C3.61497739 1.47158371 5.40591511 3.41462331 7.75 6.5 C8.36359375 7.2940625 8.9771875 8.088125 9.609375 8.90625 C11 11 11 11 11 13 C8.625 12.75 8.625 12.75 6 12 C4.6875 9.9375 4.6875 9.9375 4 8 C3.34 8 2.68 8 2 8 C2.04125 7.236875 2.0825 6.47375 2.125 5.6875 C2.22080824 2.77281584 2.22080824 2.77281584 0 0 Z " fill="#4EABD0" transform="translate(624,34)"/>
<path d="M0 0 C0.66 0.33 1.32 0.66 2 1 C0.64746536 7.45054982 -1.03060233 13.71105679 -3 20 C-3.33 20 -3.66 20 -4 20 C-4.33 17.36 -4.66 14.72 -5 12 C-4.01 11.67 -3.02 11.34 -2 11 C-1.34 7.37 -0.68 3.74 0 0 Z " fill="#53A4C5" transform="translate(653,207)"/>
<path d="M0 0 C1.65 0.33 3.3 0.66 5 1 C1.71260831 3.73949307 -1.70565274 6.26584559 -5.1875 8.75 C-6.47720703 9.67039063 -6.47720703 9.67039063 -7.79296875 10.609375 C-10 12 -10 12 -12 12 C-12 11.34 -12 10.68 -12 10 C-10.68 9.67 -9.36 9.34 -8 9 C-8 8.34 -8 7.68 -8 7 C-6.35 6.67 -4.7 6.34 -3 6 C-3 5.34 -3 4.68 -3 4 C-2.34 3.67 -1.68 3.34 -1 3 C-0.67 2.01 -0.34 1.02 0 0 Z " fill="#53A8C4" transform="translate(796,171)"/>
<path d="M0 0 C0.66 0.66 1.32 1.32 2 2 C1.0936096 3.92154764 0.17443196 5.83706654 -0.75 7.75 C-1.51570312 9.35101563 -1.51570312 9.35101563 -2.296875 10.984375 C-3.92485639 13.86694755 -5.54844908 15.80426309 -8 18 C-7.125 14.125 -7.125 14.125 -6 13 C-5.63239269 10.67182036 -5.29758419 8.3381615 -5 6 C-4.01 6 -3.02 6 -2 6 C-1.34 4.02 -0.68 2.04 0 0 Z " fill="#53A6C4" transform="translate(833,127)"/>
<path d="M0 0 C1.875 0.125 1.875 0.125 4 1 C6.96892886 6.49251839 6.17657264 12.93767255 6 19 C5.01 19.33 4.02 19.66 3 20 C3.10699219 19.3709375 3.21398437 18.741875 3.32421875 18.09375 C4.34351285 10.81620932 3.28405627 6.56811255 0 0 Z " fill="#56A9C5" transform="translate(94,117)"/>
<path d="M0 0 C0.66 0.33 1.32 0.66 2 1 C1.54625 1.598125 1.0925 2.19625 0.625 2.8125 C-0.63295913 4.50590652 -1.82984724 6.24477086 -3 8 C-3.66 8 -4.32 8 -5 8 C-5.33 8.99 -5.66 9.98 -6 11 C-7.65 11.33 -9.3 11.66 -11 12 C-7.49102731 7.81576108 -3.91939465 3.80411834 0 0 Z " fill="#54AACC" transform="translate(533,30)"/>
<path d="M0 0 C0.33 0.66 0.66 1.32 1 2 C3.01669827 3.13350534 3.01669827 3.13350534 5 4 C4.360625 4.103125 3.72125 4.20625 3.0625 4.3125 C2.381875 4.539375 1.70125 4.76625 1 5 C0.67 5.99 0.34 6.98 0 8 C-3.96 7.67 -7.92 7.34 -12 7 C-12 6.67 -12 6.34 -12 6 C-8.04 5.34 -4.08 4.68 0 4 C0 2.68 0 1.36 0 0 Z " fill="#49ABCD" transform="translate(403,134)"/>
<path d="M0 0 C7.97556739 1.68555806 14.87861501 4.01391504 22 8 C21.01 8.495 21.01 8.495 20 9 C17.98791985 8.02453423 15.99001098 7.01973344 14 6 C10.59727672 4.89969477 7.17270279 3.93333672 3.73046875 2.96484375 C1 2 1 2 0 0 Z " fill="#53A5BF" transform="translate(98,67)"/>
<path d="M0 0 C0.66 0.33 1.32 0.66 2 1 C1.4375 2.875 1.4375 2.875 0 5 C-3.3125 6.125 -3.3125 6.125 -7 7 C-7.886875 7.391875 -8.77375 7.78375 -9.6875 8.1875 C-12.33997026 9.11944901 -13.3741627 8.77945907 -16 8 C-15.01257813 7.59007812 -14.02515625 7.18015625 -13.0078125 6.7578125 C-11.71343379 6.21379826 -10.41916884 5.66951331 -9.125 5.125 C-8.47402344 4.85558594 -7.82304688 4.58617187 -7.15234375 4.30859375 C-4.33029055 3.11576714 -2.18742011 2.18742011 0 0 Z " fill="#56A7C6" transform="translate(90,143)"/>
<path d="M0 0 C0.99 0 1.98 0 3 0 C3.3690205 10.55808656 3.3690205 10.55808656 1 15 C0.12881953 12.38645858 -0.30836136 10.21404545 -0.625 7.5 C-0.72039063 6.7265625 -0.81578125 5.953125 -0.9140625 5.15625 C-1 3 -1 3 0 0 Z " fill="#46ADD5" transform="translate(836,109)"/>
<path d="M0 0 C7.0528764 -0.9199404 11.26938677 2.1257826 17 6 C16.67 6.66 16.34 7.32 16 8 C13.97954558 7.39816251 11.97888961 6.72693904 10 6 C9.67 5.34 9.34 4.68 9 4 C6.88672575 3.09274566 6.88672575 3.09274566 4.4375 2.375 C3.61121094 2.11460938 2.78492188 1.85421875 1.93359375 1.5859375 C1.29550781 1.39257812 0.65742188 1.19921875 0 1 C0 0.67 0 0.34 0 0 Z " fill="#4DA6C6" transform="translate(337,14)"/>
<path d="M0 0 C2.5 0.25 2.5 0.25 4.5 2.25 C5.81747324 2.94748583 7.14914193 3.61959957 8.5 4.25 C8.17 4.58 7.84 4.91 7.5 5.25 C3.16688485 4.83335431 -0.53536259 4.05210791 -4.5 2.25 C-2.5 0.25 -2.5 0.25 0 0 Z " fill="#4FACCC" transform="translate(546.5,283.75)"/>
<path d="M0 0 C0.66 0 1.32 0 2 0 C1.5003731 7.49440349 -0.43764478 13.95650263 -3 21 C-3.33 21 -3.66 21 -4 21 C-4.37705922 15.8468573 -3.02042284 12.68738099 -1 8 C-0.49205839 5.32390022 -0.23852953 2.71923663 0 0 Z " fill="#56AAC4" transform="translate(739,250)"/>
<path d="M0 0 C0.33 0 0.66 0 1 0 C1 2.31 1 4.62 1 7 C1.66 7 2.32 7 3 7 C3.33 10.63 3.66 14.26 4 18 C0.8982856 13.3474284 -1.52232988 8.70467085 -0.6875 3 C-0.460625 2.01 -0.23375 1.02 0 0 Z " fill="#53A8CB" transform="translate(168,102)"/>
<path d="M0 0 C1.65 0 3.3 0 5 0 C5.28875 1.134375 5.5775 2.26875 5.875 3.4375 C6.24625 4.613125 6.6175 5.78875 7 7 C7.66 7.33 8.32 7.66 9 8 C9 8.66 9 9.32 9 10 C4.50486731 8.50162244 2.37078067 4.87680938 0 1 C0 0.67 0 0.34 0 0 Z " fill="#4EACCD" transform="translate(689,277)"/>
<path d="M0 0 C1.65 0 3.3 0 5 0 C5 2.97 5 5.94 5 9 C4.01 9.495 4.01 9.495 3 10 C0.96564469 6.27034861 0 4.33094958 0 0 Z " fill="#46AFD7" transform="translate(162,274)"/>
<path d="M0 0 C0.66 0.66 1.32 1.32 2 2 C1.9765625 5.0390625 1.9765625 5.0390625 1.625 8.625 C1.45871094 10.40777344 1.45871094 10.40777344 1.2890625 12.2265625 C1.19367188 13.14179688 1.09828125 14.05703125 1 15 C0.67 15 0.34 15 0 15 C0 11.7 0 8.4 0 5 C-2.97 5 -5.94 5 -9 5 C-9 4.67 -9 4.34 -9 4 C-4.545 3.505 -4.545 3.505 0 3 C0 2.01 0 1.02 0 0 Z " fill="#4EA9CD" transform="translate(398,201)"/>
<path d="M0 0 C3.82524236 1.450954 5.19090966 3.38181932 7 7 C7 7.66 7 8.32 7 9 C7.66 9 8.32 9 9 9 C9.66 10.98 10.32 12.96 11 15 C6.82616605 11.07168569 3.10605574 6.83520017 0 2 C0 1.34 0 0.68 0 0 Z " fill="#58A9CB" transform="translate(181,134)"/>
<path d="M0 0 C0.66 0 1.32 0 2 0 C0.68315519 4.60895683 -1.15198745 8.14140235 -4 12 C-4.33 12 -4.66 12 -5 12 C-5 10.35 -5 8.7 -5 7 C-4.34 7 -3.68 7 -3 7 C-2.87625 6.21625 -2.7525 5.4325 -2.625 4.625 C-2 2 -2 2 0 0 Z " fill="#4DAFCC" transform="translate(640,243)"/>
<path d="M0 0 C0.33 0.66 0.66 1.32 1 2 C0.07421875 4.53125 0.07421875 4.53125 -1.3125 7.5 C-1.76238281 8.4796875 -2.21226562 9.459375 -2.67578125 10.46875 C-4 13 -4 13 -6 15 C-4.99667352 9.05925113 -3.69087294 4.79813482 0 0 Z " fill="#57A8C8" transform="translate(648,228)"/>
<path d="M0 0 C1.98 1.65 3.96 3.3 6 5 C5.67 5.66 5.34 6.32 5 7 C3.02 7 1.04 7 -1 7 C-1.66 5.68 -2.32 4.36 -3 3 C-2.01 2.67 -1.02 2.34 0 2 C0 1.34 0 0.68 0 0 Z " fill="#49AAD4" transform="translate(563,215)"/>
<path d="M0 0 C0.93972656 0.28037109 0.93972656 0.28037109 1.8984375 0.56640625 C0.96882328 1.71864653 0.029425 2.86299801 -0.9140625 4.00390625 C-1.69716797 4.96103516 -1.69716797 4.96103516 -2.49609375 5.9375 C-4.1015625 7.56640625 -4.1015625 7.56640625 -7.1015625 8.56640625 C-4.36656075 -0.90090751 -4.36656075 -0.90090751 0 0 Z " fill="#54A9C9" transform="translate(815.1015625,156.43359375)"/>
<path d="M0 0 C0.33 0 0.66 0 1 0 C0.50130596 5.36891879 -0.02227532 10.69235173 -1 16 C-1.66 15.67 -2.32 15.34 -3 15 C-3 12.36 -3 9.72 -3 7 C-2.34 7 -1.68 7 -1 7 C-0.67 4.69 -0.34 2.38 0 0 Z " fill="#4DACC9" transform="translate(553,119)"/>
<path d="M0 0 C0.99 0 1.98 0 3 0 C3.125 6.625 3.125 6.625 2 10 C1.34 10 0.68 10 0 10 C0 6.7 0 3.4 0 0 Z " fill="#50A9C8" transform="translate(161,263)"/>
<path d="M0 0 C4.29 0.33 8.58 0.66 13 1 C13 1.33 13 1.66 13 2 C6.07 3.485 6.07 3.485 -1 5 C-1 4.34 -1 3.68 -1 3 C-0.34 3 0.32 3 1 3 C0.67 2.01 0.34 1.02 0 0 Z " fill="#52ABCF" transform="translate(79,114)"/>
<path d="M0 0 C0 0.99 0 1.98 0 3 C-1.65 3.33 -3.3 3.66 -5 4 C-5 4.66 -5 5.32 -5 6 C-6.96147874 7.38938077 -8.96166576 8.7260411 -11 10 C-9.63088196 6.8510285 -8.1247864 4.9521513 -5.5 2.75 C-4.8915625 2.22921875 -4.283125 1.7084375 -3.65625 1.171875 C-2 0 -2 0 0 0 Z " fill="#57A5C3" transform="translate(422,21)"/>
<path d="M0 0 C2.0625 0.4375 2.0625 0.4375 4 1 C1.06479195 2.95680536 -1.23511643 4.05977536 -4.6875 4.9375 C-8.08229802 5.65036906 -8.08229802 5.65036906 -9.4375 8.125 C-9.623125 8.74375 -9.80875 9.3625 -10 10 C-10 7 -10 7 -8 4 C-5.69034152 2.94647157 -3.3570226 1.94280904 -1 1 C-0.67 0.67 -0.34 0.34 0 0 Z " fill="#49ABD0" transform="translate(321,15)"/>
<path d="M0 0 C-5.41538462 4.06153846 -5.41538462 4.06153846 -8.375 3.75 C-8.91125 3.5025 -9.4475 3.255 -10 3 C-8 0 -8 0 -5.5625 -0.75 C-3 -1 -3 -1 0 0 Z " fill="#4CA9CA" transform="translate(442,284)"/>
<path d="M0 0 C0.66 0.33 1.32 0.66 2 1 C-0.97 4.3 -3.94 7.6 -7 11 C-7.33 10.34 -7.66 9.68 -8 9 C-7.25 6.9375 -7.25 6.9375 -6 5 C-5.01 4.67 -4.02 4.34 -3 4 C-1.31461399 2.00334686 -1.31461399 2.00334686 0 0 Z " fill="#55A9C3" transform="translate(130,166)"/>
<path d="M0 0 C1.66666667 1.66666667 3.33333333 3.33333333 5 5 C5.928125 5.886875 6.85625 6.77375 7.8125 7.6875 C10 10 10 10 10 12 C5.93194482 11.07015882 4.34543308 9.40336874 2.1875 6 C0 2.33846154 0 2.33846154 0 0 Z " fill="#52A3C0" transform="translate(238,119)"/>
<path d="M0 0 C1.9375 0.125 1.9375 0.125 4 1 C5.25 3.5625 5.25 3.5625 6 6 C5.34 6 4.68 6 4 6 C4 5.34 4 4.68 4 4 C2.68 4.33 1.36 4.66 0 5 C-0.5625 3.0625 -0.5625 3.0625 -1 1 C-0.67 0.67 -0.34 0.34 0 0 Z " fill="#4AAACE" transform="translate(133,90)"/>
<path d="M0 0 C0.99 0.33 1.98 0.66 3 1 C2.88590407 2.45922693 2.75834456 3.91740598 2.625 5.375 C2.55539062 6.18710938 2.48578125 6.99921875 2.4140625 7.8359375 C2 10 2 10 0 12 C0 8.04 0 4.08 0 0 Z " fill="#48A5C6" transform="translate(397,219)"/>
<path d="M0 0 C2.91227269 3.28804981 4.49701212 5.59885603 5 10 C4.01 10 3.02 10 2 10 C2 8.68 2 7.36 2 6 C1.01 5.67 0.02 5.34 -1 5 C-0.67 3.35 -0.34 1.7 0 0 Z " fill="#49ABCA" transform="translate(458,33)"/>
<path d="M0 0 C1.1055189 0.93590504 2.20935453 1.87379858 3.3125 2.8125 C3.92738281 3.33457031 4.54226563 3.85664063 5.17578125 4.39453125 C6.85424679 5.87172469 8.43882034 7.40039131 10 9 C9.67 9.66 9.34 10.32 9 11 C4.125 8.375 4.125 8.375 3 5 C2.484375 4.484375 1.96875 3.96875 1.4375 3.4375 C0.963125 2.963125 0.48875 2.48875 0 2 C0 1.34 0 0.68 0 0 Z " fill="#53A7C3" transform="translate(816,27)"/>
<path d="M0 0 C0.33 0.99 0.66 1.98 1 3 C-0.98 3.99 -0.98 3.99 -3 5 C-3 5.66 -3 6.32 -3 7 C-4.62626404 8.38232443 -6.2925002 9.71937515 -8 11 C-6.52670958 5.99081256 -3.72484762 3.48192278 0 0 Z " fill="#56ABC9" transform="translate(178,236)"/>
<path d="M0 0 C0 0.99 0 1.98 0 3 C0.99 3.33 1.98 3.66 3 4 C-0.3 4 -3.6 4 -7 4 C-7 3.34 -7 2.68 -7 2 C-2.25 0 -2.25 0 0 0 Z " fill="#51A9C9" transform="translate(386,203)"/>
<path d="M0 0 C2.31 0.33 4.62 0.66 7 1 C1 5 1 5 -3 5 C-2.67 4.01 -2.34 3.02 -2 2 C-1.34 2 -0.68 2 0 2 C0 1.34 0 0.68 0 0 Z " fill="#4FABCB" transform="translate(89,194)"/>
<path d="M0 0 C0 0.66 0 1.32 0 2 C-0.9590625 2.1546875 -0.9590625 2.1546875 -1.9375 2.3125 C-2.618125 2.539375 -3.29875 2.76625 -4 3 C-4.33 3.99 -4.66 4.98 -5 6 C-7.0625 6.6875 -7.0625 6.6875 -9 7 C-9 6.01 -9 5.02 -9 4 C-2.25 0 -2.25 0 0 0 Z " fill="#51A9C9" transform="translate(58,72)"/>
<path d="M0 0 C4.99275057 1.27721526 7.57611908 3.17330957 11 7 C10.67 7.66 10.34 8.32 10 9 C9.278125 8.195625 8.55625 7.39125 7.8125 6.5625 C4.97484311 3.97707928 3.72833853 3.31957187 0 3 C0 2.01 0 1.02 0 0 Z " fill="#55A3C6" transform="translate(271,7)"/>
<path d="M0 0 C3.66881155 0.70554068 6.70450534 2.27735506 10 4 C10 4.66 10 5.32 10 6 C6.20696275 4.99806563 3.28463659 4.18975773 0 2 C0 1.34 0 0.68 0 0 Z " fill="#52ACC9" transform="translate(50,271)"/>
<path d="M0 0 C0 0.99 0 1.98 0 3 C-5.34883721 8 -5.34883721 8 -8 8 C-6.54098339 4.15350168 -4.5612873 2.91761624 -1 1 C-0.67 0.67 -0.34 0.34 0 0 Z " fill="#52ACCA" transform="translate(627,264)"/>
<path d="M0 0 C0.66 0 1.32 0 2 0 C1.40312566 3.34249629 0.26396123 5.46436342 -2 8 C-2.66 8 -3.32 8 -4 8 C-2.87548273 5.0280615 -1.77706209 2.66559313 0 0 Z " fill="#51A9C7" transform="translate(168,248)"/>
<path d="M0 0 C0 0.66 0 1.32 0 2 C-0.61875 2.2475 -1.2375 2.495 -1.875 2.75 C-4.35068687 4.20628639 -4.95125002 5.37812506 -6 8 C-7.32 7.34 -8.64 6.68 -10 6 C-8.71283353 4.99421411 -7.42011342 3.99553202 -6.125 3 C-5.40570313 2.443125 -4.68640625 1.88625 -3.9453125 1.3125 C-2 0 -2 0 0 0 Z " fill="#4EA9CB" transform="translate(108,214)"/>
<path d="M0 0 C0.66 0.33 1.32 0.66 2 1 C1.01 1.66 0.02 2.32 -1 3 C-1.69356423 5.32548007 -2.36149212 7.65880445 -3 10 C-3.99 10.495 -3.99 10.495 -5 11 C-4.74445946 9.53890937 -4.46999628 8.08111904 -4.1875 6.625 C-4.03667969 5.81289063 -3.88585937 5.00078125 -3.73046875 4.1640625 C-3 2 -3 2 0 0 Z " fill="#44AFD3" transform="translate(688,40)"/>
<path d="M0 0 C1.984375 1.14453125 1.984375 1.14453125 4 3 C4.390625 5.69921875 4.390625 5.69921875 4.25 8.6875 C4.21390625 9.68136719 4.1778125 10.67523438 4.140625 11.69921875 C4.09421875 12.45847656 4.0478125 13.21773437 4 14 C3.67 14 3.34 14 3 14 C2.86722656 13.32453125 2.73445312 12.6490625 2.59765625 11.953125 C2.42105469 11.06109375 2.24445313 10.1690625 2.0625 9.25 C1.88847656 8.36828125 1.71445313 7.4865625 1.53515625 6.578125 C1.07631512 4.36764947 0.56663926 2.18487932 0 0 Z " fill="#45A9C6" transform="translate(153,205)"/>
<path d="M0 0 C3.39417765 3.12621626 5.6062718 5.56541027 7 10 C4.525 9.01 4.525 9.01 2 8 C2 6.35 2 4.7 2 3 C1.34 3 0.68 3 0 3 C0 2.01 0 1.02 0 0 Z " fill="#50A1C2" transform="translate(826,38)"/>
<path d="M0 0 C0.66 0 1.32 0 2 0 C1 3 1 3 -2 5 C-5.1875 5.125 -5.1875 5.125 -8 5 C-7 3 -7 3 -4 1.9375 C-2.515 1.4734375 -2.515 1.4734375 -1 1 C-0.67 0.67 -0.34 0.34 0 0 Z " fill="#48AECF" transform="translate(116,209)"/>
<path d="M0 0 C0.99 0.33 1.98 0.66 3 1 C-1.455 3.97 -1.455 3.97 -6 7 C-6.66 6.67 -7.32 6.34 -8 6 C-6.7391988 4.96680187 -5.46596742 3.94875621 -4.1875 2.9375 C-3.47980469 2.36902344 -2.77210937 1.80054688 -2.04296875 1.21484375 C-1.36878906 0.81394531 -0.69460937 0.41304687 0 0 Z " fill="#58A7C8" transform="translate(110,185)"/>
<path d="M0 0 C3.375 4.5 3.375 4.5 4 8 C3.34 8 2.68 8 2 8 C1.67 8.66 1.34 9.32 1 10 C0.67 6.7 0.34 3.4 0 0 Z M-1 10 C1 11 1 11 1 11 Z " fill="#4AA8CB" transform="translate(641,57)"/>
<path d="M0 0 C0.58265625 0.21527344 1.1653125 0.43054688 1.765625 0.65234375 C0.50322788 1.5189299 -0.76965001 2.37026434 -2.046875 3.21484375 C-3.10841797 3.92833984 -3.10841797 3.92833984 -4.19140625 4.65625 C-6.234375 5.65234375 -6.234375 5.65234375 -9.234375 4.65234375 C-8.16330383 3.78285058 -7.07691556 2.9322017 -5.984375 2.08984375 C-5.38109375 1.61417969 -4.7778125 1.13851563 -4.15625 0.6484375 C-2.234375 -0.34765625 -2.234375 -0.34765625 0 0 Z " fill="#55A8C1" transform="translate(217.234375,283.34765625)"/>
<path d="M0 0 C0.66 0 1.32 0 2 0 C2 0.66 2 1.32 2 2 C3.65 2 5.3 2 7 2 C5.75 3.5625 5.75 3.5625 4 5 C1.8125 4.6875 1.8125 4.6875 0 4 C0 2.68 0 1.36 0 0 Z " fill="#51ADD5" transform="translate(606,276)"/>
<path d="M0 0 C0.66 0.33 1.32 0.66 2 1 C-0.31 3.31 -2.62 5.62 -5 8 C-5.66 7.67 -6.32 7.34 -7 7 C-5.74797133 3.24391399 -4.36936427 2.85315035 -1 1 C-0.67 0.67 -0.34 0.34 0 0 Z " fill="#53A7C1" transform="translate(141,249)"/>
<path d="M0 0 C0.99 0 1.98 0 3 0 C2.29445932 3.66881155 0.72264494 6.70450534 -1 10 C-1.33 8.68 -1.66 7.36 -2 6 C-1.34 6 -0.68 6 0 6 C0 4.02 0 2.04 0 0 Z " fill="#4FA7C6" transform="translate(265,226)"/>
<path d="M0 0 C0.66 0 1.32 0 2 0 C1.34 2.31 0.68 4.62 0 7 C-0.99 6.67 -1.98 6.34 -3 6 C-1.125 1.125 -1.125 1.125 0 0 Z " fill="#50A5D0" transform="translate(63,137)"/>
<path d="M0 0 C0.66 1.32 1.32 2.64 2 4 C0.68 5.32 -0.64 6.64 -2 8 C-2.66 7.67 -3.32 7.34 -4 7 C-1.125 1.125 -1.125 1.125 0 0 Z " fill="#4CADCD" transform="translate(521,42)"/>
<path d="M0 0 C1.0326802 2.78823655 1.04509293 3.8677274 0.0625 6.75 C-0.288125 7.4925 -0.63875 8.235 -1 9 C-1.99 9 -2.98 9 -4 9 C-2.80100302 5.9168649 -1.52299523 2.93720508 0 0 Z " fill="#55A8C6" transform="translate(589,209)"/>
<path d="M0 0 C0.66 0 1.32 0 2 0 C1.51421457 3.12290635 1.0013988 5.99580359 0 9 C-0.66 9 -1.32 9 -2 9 C-1.34 6.03 -0.68 3.06 0 0 Z " fill="#54A4C6" transform="translate(11,130)"/>
<path d="M0 0 C0.66 0.33 1.32 0.66 2 1 C0.68 3.64 -0.64 6.28 -2 9 C-2.97608217 6.07175348 -3.08226668 4.04386724 -3 1 C-2.01 0.67 -1.02 0.34 0 0 Z " fill="#51A9C9" transform="translate(68,127)"/>
<path d="M0 0 C2.5 2.3125 2.5 2.3125 5 5 C5 5.99 5 6.98 5 8 C3.0625 7.375 3.0625 7.375 1 6 C0.25 2.875 0.25 2.875 0 0 Z " fill="#4FA6C7" transform="translate(355,23)"/>
<path d="M0 0 C3.34373475 0.55728913 6.03312999 1.35173889 9 3 C9 3.66 9 4.32 9 5 C5.22454612 3.90931332 2.52956528 3.0916909 0 0 Z " fill="#4CA7C6" transform="translate(533,280)"/>
<path d="M0 0 C0.99 0 1.98 0 3 0 C3.185625 1.2065625 3.185625 1.2065625 3.375 2.4375 C3.58125 3.283125 3.7875 4.12875 4 5 C4.66 5.33 5.32 5.66 6 6 C5.34 6.66 4.68 7.32 4 8 C0 2.25 0 2.25 0 0 Z " fill="#56A5C1" transform="translate(507,252)"/>
<path d="M0 0 C0.66 0 1.32 0 2 0 C1.67 2.97 1.34 5.94 1 9 C0.67 9 0.34 9 0 9 C-0.87890625 2.84765625 -0.87890625 2.84765625 -1 1 C-0.67 0.67 -0.34 0.34 0 0 Z " fill="#4AABD1" transform="translate(649,218)"/>
<path d="M0 0 C1.98 0 3.96 0 6 0 C5 2 5 2 2.625 3.1875 C0 4 0 4 -3 3 C-2.34 3 -1.68 3 -1 3 C-0.67 2.01 -0.34 1.02 0 0 Z " fill="#47AED3" transform="translate(763,188)"/>
<path d="M0 0 C0.66 0.33 1.32 0.66 2 1 C0.63016497 4.16115776 0.0109362 4.9927092 -3 7 C-3 5.68 -3 4.36 -3 3 C-2.34 3 -1.68 3 -1 3 C-0.67 2.01 -0.34 1.02 0 0 Z " fill="#51A9C5" transform="translate(282,41)"/>
<path d="M0 0 C-1 3 -1 3 -3.9375 4.75 C-5.4534375 5.36875 -5.4534375 5.36875 -7 6 C-7.66 5.67 -8.32 5.34 -9 5 C-7.87926138 4.16094435 -6.75325453 3.32892169 -5.625 2.5 C-4.99851562 2.0359375 -4.37203125 1.571875 -3.7265625 1.09375 C-2 0 -2 0 0 0 Z " fill="#57A7C4" transform="translate(544,24)"/>
<path d="M0 0 C0 0.99 0 1.98 0 3 C-2.64 3 -5.28 3 -8 3 C-5.53387212 -0.1151089 -3.89156016 -0.31553191 0 0 Z " fill="#4AACD0" transform="translate(227,13)"/>
</svg>
